<?xml version="1.0" encoding="UTF-8"?>
<svg width="331px" height="50px" viewBox="0 0 331 50" version="1.1" xmlns="http://www.w3.org/2000/svg" xmlns:xlink="http://www.w3.org/1999/xlink">
    <!-- Generator: Sketch 63 (92445) - https://sketch.com -->
    <title>形状结合</title>
    <desc>Created with Sketch.</desc>
    <g id="动画说明" stroke="none" stroke-width="1" fill="none" fill-rule="evenodd">
        <g id="画板备份-13" transform="translate(-1355.000000, -474.000000)" fill="#1A1A1A" fill-rule="nonzero">
            <path d="M1363.15394,474 L1363.15394,523.414436 L1355,523.414436 L1355,474 L1363.15394,474 Z M1388.11772,474 L1406.72211,502.978661 C1407.14943,503.644251 1407.88603,504.04669 1408.67698,504.04669 C1409.95997,504.04669 1411.00004,503.006621 1411.00004,501.72363 L1411.00004,501.72363 L1411.00004,474 L1418.56339,474 L1418.56339,523.414436 L1411.25643,523.414436 L1392.39699,493.969152 C1391.96992,493.30236 1391.23262,492.899027 1390.44078,492.899027 C1389.15779,492.899027 1388.11772,493.939096 1388.11772,495.222087 L1388.11772,495.222087 L1388.11772,523.414436 L1380.61847,523.414436 L1380.61847,474 L1388.11772,474 Z M1469.80655,474 L1469.80655,480.920789 L1454.3692,480.920789 C1448.74751,480.920789 1444.17278,485.403357 1444.0243,490.989206 L1444.02058,491.269402 L1444.01964,493.851 L1443.97306,493.851426 L1443.97306,502.482481 L1444.01964,502.482 L1444.02058,523.414436 L1435.86664,523.414436 L1435.86664,491.247688 C1435.86664,481.830299 1443.41419,474.175734 1452.7903,474.002983 L1453.11433,474 L1469.80655,474 Z M1495.76365,474 L1495.76365,523.414436 L1487.60971,523.414436 L1487.60971,474 L1495.76365,474 Z M1522.70526,474 L1541.30965,502.978661 C1541.73696,503.644251 1542.47357,504.04669 1543.26452,504.04669 C1544.54751,504.04669 1545.58758,503.006621 1545.58758,501.72363 L1545.58758,501.72363 L1545.58758,474 L1553.15092,474 L1553.15092,523.414436 L1545.84396,523.414436 L1526.98453,493.969152 C1526.55745,493.30236 1525.82015,492.899027 1525.02832,492.899027 C1523.74533,492.899027 1522.70526,493.939096 1522.70526,495.222087 L1522.70526,495.222087 L1522.70526,523.414436 L1515.20601,523.414436 L1515.20601,474 L1522.70526,474 Z M1580.27732,474 L1580.27732,523.414436 L1572.12338,523.414436 L1572.12338,474 L1580.27732,474 Z M1622.45591,486.083 L1622.45674,523.414436 L1614.3028,523.414436 L1614.30191,486.083 L1622.45591,486.083 Z M1685.61317,474 L1685.61317,480.920789 L1669.56981,480.920789 C1663.94812,480.920789 1659.37339,485.403357 1659.22491,490.989206 L1659.22119,491.269402 L1659.22075,494.542 L1659.17597,494.54235 L1659.17597,501.619815 L1659.22075,501.619 L1659.22119,506.145033 C1659.22119,511.76672 1663.70376,516.341446 1669.28961,516.489927 L1669.56981,516.493647 L1685.61317,516.493647 L1685.61317,523.414436 L1668.71044,523.414436 C1659.29305,523.414436 1651.63848,515.866887 1651.46573,506.490778 L1651.46275,506.166747 L1651.46275,491.247688 C1651.46275,481.830299 1659.0103,474.175734 1668.38641,474.002983 L1668.71044,474 L1685.61317,474 Z M1468.34302,494.623952 L1468.34302,501.544742 L1449.14664,501.544 L1449.14664,494.623 L1468.34302,494.623952 Z M1684.0217,494.623952 L1684.0217,501.544742 L1664.09875,501.544 L1664.09875,494.623 L1684.0217,494.623952 Z M1638.76462,474 L1638.76462,480.920789 L1625.59091,480.92 L1625.59122,480.905283 L1610.0683,480.905283 L1610.06791,480.92 L1597.99491,480.920789 L1597.99491,474 L1638.76462,474 Z" id="形状结合"></path>
        </g>
    </g>
</svg>