<?xml version="1.0" encoding="UTF-8"?>
<svg width="100px" height="100px" viewBox="0 0 100 100" version="1.1" xmlns="http://www.w3.org/2000/svg" xmlns:xlink="http://www.w3.org/1999/xlink">
    <!-- Generator: Sketch 63 (92445) - https://sketch.com -->
    <title>画板</title>
    <desc>Created with Sketch.</desc>
    <g id="画板" stroke="none" stroke-width="1" fill="none" fill-rule="evenodd">
        <path d="M50.5,6.06217783 C50.1905989,5.88354503 49.8094011,5.88354503 49.5,6.06217783 L12.1987298,27.5980762 C12.0440293,27.6873926 11.9190293,27.8145826 11.8327044,27.9641016 C11.7463795,28.1136207 11.6987298,28.2854688 11.6987298,28.4641016 L11.6987298,71.5358984 C11.6987298,71.893164 11.8893287,72.223291 12.1987298,72.4019238 L49.5,93.9378222 C49.8094011,94.116455 50.1905989,94.116455 50.5,93.9378222 L87.8012702,72.4019238 C88.1106713,72.223291 88.3012702,71.893164 88.3012702,71.5358984 L88.3012702,28.4641016 C88.3012702,28.2854688 88.2536205,28.1136207 88.1672956,27.9641016 C88.0809707,27.8145826 87.9559707,27.6873926 87.8012702,27.5980762 L50.5,6.06217783 Z" id="多边形" stroke="#FF5838" stroke-width="10" fill-rule="nonzero"></path>
    </g>
</svg>