<?xml version="1.0" encoding="UTF-8"?>
<svg width="34px" height="34px" viewBox="0 0 34 34" version="1.1" xmlns="http://www.w3.org/2000/svg" xmlns:xlink="http://www.w3.org/1999/xlink">
    <!-- Generator: Sketch 63 (92445) - https://sketch.com -->
    <title>解释</title>
    <desc>Created with Sketch.</desc>
    <defs>
        <filter x="-34.9%" y="-50.4%" width="169.8%" height="200.9%" filterUnits="objectBoundingBox" id="filter-1">
            <feOffset dx="0" dy="18" in="SourceAlpha" result="shadowOffsetOuter1"></feOffset>
            <feGaussianBlur stdDeviation="52" in="shadowOffsetOuter1" result="shadowBlurOuter1"></feGaussianBlur>
            <feColorMatrix values="0 0 0 0 0.876199065   0 0 0 0 0.899843936   0 0 0 0 0.964022871  0 0 0 0.7401934 0" type="matrix" in="shadowBlurOuter1" result="shadowMatrixOuter1"></feColorMatrix>
            <feMerge>
                <feMergeNode in="shadowMatrixOuter1"></feMergeNode>
                <feMergeNode in="SourceGraphic"></feMergeNode>
            </feMerge>
        </filter>
    </defs>
    <g id="v1.4" stroke="none" stroke-width="1" fill="none" fill-rule="evenodd">
        <g id="05" transform="translate(-1196.000000, -466.000000)" fill="#909399">
            <g id="编组-15">
                <g id="达成率" filter="url(#filter-1)" transform="translate(634.000000, 409.000000)">
                    <g id="编组" transform="translate(562.000000, 57.000000)">
                        <path d="M17,31.609375 C18.9722656,31.609375 20.8847656,31.2242187 22.684375,30.4638672 C24.4242188,29.7267578 25.9847656,28.6742188 27.3294922,27.3328125 C28.6708984,25.9914063 29.7267578,24.4275391 30.4605469,22.6876953 C31.2242187,20.8847656 31.609375,18.9722656 31.609375,17 C31.609375,15.0277344 31.2242187,13.1152344 30.4638672,11.315625 C29.7267578,9.57578125 28.6742188,8.01523438 27.3328125,6.67050781 C25.9914063,5.32910156 24.4275391,4.27324219 22.6876953,3.53945313 C20.8847656,2.77578125 18.9722656,2.390625 17,2.390625 C15.0277344,2.390625 13.1152344,2.77578125 11.315625,3.53613281 C9.57578125,4.27324219 8.01523438,5.32578125 6.67050781,6.6671875 C5.32910156,8.00859375 4.27324219,9.57246094 3.53945313,11.3123047 C2.77578125,13.1152344 2.390625,15.0277344 2.390625,17 C2.390625,18.9722656 2.77578125,20.8847656 3.53613281,22.684375 C4.27324219,24.4242188 5.32578125,25.9847656 6.6671875,27.3294922 C8.00859375,28.6708984 9.57246094,29.7267578 11.3123047,30.4605469 C13.1152344,31.2242187 15.0277344,31.609375 17,31.609375 L17,31.609375 Z M17,34 C7.61015625,34 0,26.3898437 0,17 C0,7.61015625 7.61015625,0 17,0 C26.3898437,0 34,7.61015625 34,17 C34,26.3898437 26.3898437,34 17,34 L17,34 L17,34 Z M17,12.75 C16.2662109,12.75 15.671875,13.3443359 15.671875,14.078125 L15.671875,26.3300781 C15.671875,27.0638672 16.2662109,27.6582031 17,27.6582031 C17.7337891,27.6582031 18.328125,27.0638672 18.328125,26.3300781 L18.328125,14.078125 C18.328125,13.3443359 17.7337891,12.75 17,12.75 L17,12.75 Z M15.5058594,9.13085938 C15.5058594,9.95605046 16.1748089,10.625 17,10.625 C17.8251911,10.625 18.4941406,9.95605046 18.4941406,9.13085938 C18.4941406,8.30566829 17.8251911,7.63671875 17,7.63671875 C16.1748089,7.63671875 15.5058594,8.30566829 15.5058594,9.13085938 L15.5058594,9.13085938 Z" id="图标1"></path>
                    </g>
                </g>
            </g>
        </g>
    </g>
</svg>